<svg xmlns="http://www.w3.org/2000/svg" version="1.1" xmlns:xlink="http://www.w3.org/1999/xlink" xmlns:svgjs="http://svgjs.dev/svgjs" width="1000" height="1000" viewBox="0 0 1000 1000"><rect width="1000" height="1000" fill="#1f2d5a"></rect><g transform="matrix(0.18101887768295838,0,0,0.18101887768295838,409.5849979629458,150.21898534477327)"><svg viewBox="0 0 68 263" data-background-color="#1f2d5a" preserveAspectRatio="xMidYMid meet" height="3867" width="1000" xmlns="http://www.w3.org/2000/svg" xmlns:xlink="http://www.w3.org/1999/xlink"><g id="tight-bounds" transform="matrix(1,0,0,1,-0.03547532049196889,15.882275922393319)"><svg viewBox="0 0 68.0709506409839 247.2" height="247.2" width="68.0709506409839"><g><svg viewBox="0 0 105.73780645161291 383.9873765344686" height="247.2" width="68.0709506409839"><g transform="matrix(1,0,0,1,0,136.78737653446856)"><svg viewBox="0 0 105.73780645161291 247.20000000000002" height="247.20000000000002" width="105.73780645161291"><g><svg viewBox="0 0 105.73780645161291 247.20000000000002" height="247.20000000000002" width="105.73780645161291"><g><svg viewBox="0 0 105.73780645161291 247.20000000000002" height="247.20000000000002" width="105.73780645161291"><g transform="matrix(1,0,0,1,0,0)"><svg width="105.73780645161291" viewBox="-0.42000001668930054 -37.349998474121094 16.190000534057617 37.84000015258789" height="247.20000000000002" data-palette-color="#fbfbfb"><path d="M-0.42-1.25L0.78-4.44Q0.78-4.44 1.34-4.17L1.34-4.17Q4-2.91 6.98-2.91L6.98-2.91Q9.57-2.91 10.64-4.52L10.64-4.52Q11.67-6.08 11.67-9.86L11.67-9.86 11.67-37.35 15.77-37.35 15.77-12.6Q15.77-8.03 15.39-6.15 15.01-4.27 14.44-3.13 13.87-1.98 12.89-1.17L12.89-1.17Q10.89 0.49 6.98 0.49L6.98 0.49Q3.61 0.49 0.66-0.73L0.66-0.73Q-0.05-1.03-0.42-1.25L-0.42-1.25Z" opacity="1" transform="matrix(1,0,0,1,0,0)" fill="#fbfbfb" class="undefined-text-0" data-fill-palette-color="primary" id="text-0"></path></svg></g></svg></g></svg></g></svg></g><g transform="matrix(1,0,0,1,42.83320215857218,0)"><svg viewBox="0 0 20.071402134468563 20.071402134468563" height="20.071402134468563" width="20.071402134468563"><g><svg></svg></g><g id="icon-0"><svg viewBox="0 0 20.071402134468563 20.071402134468563" height="20.071402134468563" width="20.071402134468563"><g><path d="M0 0" data-fill-palette-color="accent" fill="#2f76db" stroke="transparent"></path><ellipse rx="9.935344056561938" ry="9.935344056561938" cx="10.035701067234282" cy="10.035701067234282" fill="#2f76db" stroke="transparent" stroke-width="0" fill-opacity="1" data-fill-palette-color="accent"></ellipse></g><g transform="matrix(1,0,0,1,41.58364490698891,44.86989239990376)"><svg viewBox="0 0 -63.09588767950925 -69.66838266533897" height="-69.66838266533897" width="-63.09588767950925"><g><svg xmlns="http://www.w3.org/2000/svg" xmlns:xlink="http://www.w3.org/1999/xlink" version="1.1" x="0" y="0" viewBox="4 21.4999942779541 72 79.50000762939453" style="enable-background:new 0 0 80 106.7;" xml:space="preserve" height="-69.66838266533897" width="-63.09588767950925" class="icon-s-0" data-fill-palette-color="quaternary" id="s-0"><g fill="#1f2d5a" data-fill-palette-color="quaternary"><path d="M30.6 42.4c-1.8 0-3.3 1.5-3.3 3.3 0 1.8 1.5 3.3 3.3 3.3s3.3-1.5 3.3-3.3C33.9 43.9 32.4 42.4 30.6 42.4z" fill="#1f2d5a" data-fill-palette-color="quaternary"></path><circle cx="37.5" cy="55.2" r="1.8" fill="#1f2d5a" data-fill-palette-color="quaternary"></circle><circle cx="37.5" cy="60.1" r="1.8" fill="#1f2d5a" data-fill-palette-color="quaternary"></circle><path d="M61.2 72.1v-9.4c3.1-4.3 4.9-9.5 4.9-15.2 0-5.7-1.8-10.9-4.9-15.2-0.1-1.4-0.9-2.5-2.2-3-0.2-0.1-0.4-0.1-0.6-0.2-4.7-4.7-11.2-7.6-18.4-7.6-14.4 0-26 11.7-26 26 0 9.4 5 17.7 12.6 22.3C13.8 71.5 4 82.4 4 95.6c0 1.1 0.9 2 2 2h43.9c0.5 2 2.2 3.4 4.4 3.4h3.7c1.8 0 3.2-1.4 3.2-3.2v-0.2H74c1.1 0 2-0.9 2-2C76 85.2 69.9 76.3 61.2 72.1zM57.2 73.7h-4.6l-1-1.4c-0.2-0.2-0.2-0.5-0.2-0.7 0-0.2 0-0.4 0.1-0.6 0-0.1 0-0.1 0.1-0.2 0.2-0.4 0.3-0.8 0.3-1.3 0-0.6-0.1-1.1-0.4-1.6l-0.7-1.2-0.5-1c-0.3-0.5-0.4-1.1-0.4-1.7 0-0.9 0.4-1.8 1.1-2.4 1.7-1.5 2.3-3.9 1.5-6l-0.2-0.5-0.6-1.5c-0.3-0.8-0.3-1.8 0.1-2.6l0.4-1c0.9-2 1.4-4.2 1.4-6.4l-0.1-5c0 0 0.1-0.1 0.1-0.1 0.8-1.2 1.6-2.3 2.5-3.4 0.4-0.4 0.7-0.9 1.1-1.3V73.7zM47.1 72.6c-0.5-0.7-0.8-1.5-0.8-2.5v-6.4c0-0.5 0-1.1 0-1.6 0.1-4.6 0.9-9 2.3-13.2 0.7-2 1.5-4 2.4-5.9 0.1-0.3 0.3-0.6 0.4-0.9l0 1.2 0 0.5c0 1.6-0.3 3.2-0.9 4.7-0.1 0.3-0.2 0.6-0.3 0.8l-0.4 1c-0.6 1.3-0.6 2.8-0.1 4.1l0.7 1.9c0 0.1 0 0.1 0 0.2 0.4 1.3 0 2.7-1 3.6-1.7 1.4-2.3 3.8-1.5 5.8 0.1 0.3 0.2 0.5 0.3 0.8l0.5 0.9 0.7 1.3c0.1 0.2 0.1 0.4 0.1 0.6 0 0.2 0 0.4-0.1 0.6-0.3 0.5-0.4 1.1-0.4 1.7 0 0.6 0.2 1.1 0.6 1.6 0 0 0 0.1 0.1 0.1 0 0 0 0 0 0l0.1 0.1h-0.9c-0.3 0-0.5-0.1-0.7-0.2C47.9 73.4 47.4 73.1 47.1 72.6zM62.4 90.1c0 1-0.5 2-1.3 2.6-0.6 0.4-1.2 0.7-2 0.7h0c-0.8 0-1.4-0.3-2-0.7-0.8-0.6-1.3-1.5-1.3-2.6v-4c0-1 0.5-2 1.3-2.6 0.6-0.4 1.2-0.7 2-0.7h0c0.8 0 1.4 0.3 2 0.7 0.8 0.6 1.3 1.5 1.3 2.6V90.1zM57.2 79.2c-1.3 0.4-2.4 1.1-3.3 2 0 0-0.1 0.1-0.1 0.1v-3.6h3.4V79.2zM43.3 53.6c-0.2-0.1-0.5-0.2-0.8-0.2-1 0-1.8 0.8-1.8 1.8 0 1 0.8 1.8 1.8 1.8 0.1 0 0.2 0 0.2 0-0.1 0.5-0.1 0.9-0.2 1.4 0 0-0.1 0-0.1 0-1 0-1.8 0.8-1.8 1.8 0 0.9 0.7 1.7 1.6 1.8 0 0.5 0 1.1 0 1.6-0.2 0-0.3 0-0.5 0.1-0.2 0-0.4 0-0.6 0.1-0.2 0-0.4 0-0.6 0-0.4 0-0.8 0-1.2 0-0.2 0-0.4 0-0.6 0-0.2 0-0.4 0-0.6-0.1-0.2 0-0.4-0.1-0.7-0.1-0.2 0-0.4-0.1-0.6-0.1-0.2 0-0.4-0.1-0.8-0.2-0.2 0-0.3-0.1-0.5-0.1-0.3-0.1-0.5-0.2-0.8-0.2l-0.4-0.1c-0.2-0.1-0.4-0.1-0.5-0.2-1.9-3.8-5.1-7-8.9-8.9l-0.1-0.2c0 0 0-0.1 0-0.1l-0.1-0.2c-0.1-0.3-0.2-0.7-0.3-1l0-0.1c-0.1-0.3-0.2-0.7-0.3-1l0-0.2c-0.1-0.3-0.1-0.6-0.2-1l-0.1-0.4c0-0.3-0.1-0.5-0.1-0.8l0-0.3c0-0.3 0-0.6 0-0.9l0-0.3c0-0.8 0.1-1.7 0.2-2.5 1.1-6.3 5.9-11.3 12-12.9l0.1 0c0.4-0.1 0.7-0.2 1.1-0.2l0.3 0c0.4-0.1 0.8-0.1 1.2-0.1l0.5 0c0.1 0 0.3 0 0.4 0 0.2 0 0.3 0 0.5 0 0.2 0 0.3 0 0.5 0 0.1 0 0.3 0 0.5 0l0.4 0c0.4 0 0.8 0.1 1.2 0.1l0.2 0c0.4 0.1 0.7 0.1 1.1 0.2 0 0 0.1 0 0.1 0 2.6 0.7 5 2 6.9 3.7C47.2 40.8 44.6 47 43.3 53.6zM53.7 94.9c0 0 0.1 0.1 0.1 0.1 0.9 0.9 2 1.6 3.2 2h-2.8c-0.3 0-0.5-0.2-0.5-0.5V94.9zM61.2 53.7v-4.3H62C61.8 50.9 61.6 52.3 61.2 53.7zM61.2 45.4v-4c0.4 1.3 0.6 2.6 0.8 4H61.2zM40 25.5c5.6 0 10.7 2.1 14.5 5.5-0.4 0.4-0.8 0.9-1.2 1.4-2.4-2.1-5.2-3.7-8.4-4.5l-0.1 0c-0.4-0.1-0.9-0.2-1.3-0.3 0 0-0.1 0-0.1 0l-0.2 0c-0.5-0.1-1-0.1-1.5-0.2-0.2 0-0.3 0-0.6 0-0.2 0-0.4 0-0.5 0-0.4 0-0.8 0-1.1 0-0.2 0-0.4 0-0.6 0-0.2 0-0.3 0-0.5 0-0.5 0-1 0.1-1.5 0.2l-0.3 0.1c-0.5 0.1-0.9 0.2-1.4 0.3 0 0-0.1 0-0.1 0-7.7 1.9-13.6 8.2-15 16-0.1 0.5-0.2 1-0.2 1.4h-1.8C19.1 34.2 28.6 25.5 40 25.5zM18 49.4h1.8c0 0.1 0 0.3 0 0.4l0 0.1c0 0.1 0 0.3 0.1 0.4 0.1 0.4 0.1 0.8 0.2 1.3l0 0.2c0.1 0.4 0.2 0.9 0.3 1.3l0 0.1c0.1 0.4 0.3 0.8 0.4 1.2l0.4 0.9c0.1 0.2 0.2 0.5 0.4 0.6l0.6 0.6c0.2 0.2 0.4 0.3 0.6 0.4 3.3 1.6 5.9 4.2 7.5 7.5 0.3 0.7 0.9 1.3 1.6 1.6 0.3 0.1 0.7 0.3 1 0.4 0.1 0 0.2 0.1 0.4 0.1l0.1 0c0.3 0.1 0.6 0.2 0.9 0.3 0.2 0.1 0.4 0.1 0.7 0.2 0.3 0.1 0.6 0.1 0.8 0.2 0.2 0 0.5 0.1 0.8 0.1 0.3 0 0.5 0.1 0.8 0.1 0.2 0 0.5 0.1 0.7 0.1 0.3 0 0.5 0 0.8 0 0.3 0 0.5 0 0.8 0s0.5 0 0.8 0c0.3 0 0.5 0 0.8 0 0.2 0 0.5 0 0.7-0.1v1.9c-0.8 0.1-1.5 0.1-2.3 0.1C28.5 69.6 19 60.7 18 49.4zM26.2 73.9v19.7H8C8.9 83.7 16.5 75.6 26.2 73.9zM30.2 73.6H38v20h-7.9V73.6zM42 73.6h1c1.1 2.5 3.4 4.2 6 4.2h0.7v15.9H42V73.6zM65.5 93.6c0.6-1 0.9-2.2 0.9-3.5v-4c0-3.3-2.2-6.1-5.3-7v-2.5c6 3.5 10.1 9.7 10.8 17H65.5z" fill="#1f2d5a" data-fill-palette-color="quaternary"></path><path d="M40 42.2c-1.1 0-2 0.9-2 2V50c0 1.1 0.9 2 2 2s2-0.9 2-2v-5.8C42 43.1 41.1 42.2 40 42.2z" fill="#1f2d5a" data-fill-palette-color="quaternary"></path></g></svg></g></svg></g></svg></g></svg></g><g></g></svg></g><defs></defs></svg><rect width="68.0709506409839" height="247.2" fill="none" stroke="none" visibility="hidden"></rect></g></svg></g></svg>